<mxfile host="app.diagrams.net" agent="Mozilla/5.0 (Windows NT 10.0; Win64; x64; rv:132.0) Gecko/20100101 Firefox/132.0" version="24.8.3">
  <diagram name="Page-1" id="bH6cYktrfCYqlOs484KL">
    <mxGraphModel dx="1792" dy="1060" grid="1" gridSize="10" guides="1" tooltips="1" connect="1" arrows="1" fold="1" page="1" pageScale="1" pageWidth="1920" pageHeight="1200" math="0" shadow="0">
      <root>
        <mxCell id="0" />
        <mxCell id="1" parent="0" />
        <mxCell id="4qwOusfXjDZK4xlIVaBN-34" style="rounded=0;orthogonalLoop=1;jettySize=auto;html=1;exitX=0.25;exitY=0;exitDx=0;exitDy=0;" parent="1" source="LnAC4LRu0r2MABlFZwdS-2" target="LnAC4LRu0r2MABlFZwdS-19" edge="1">
          <mxGeometry relative="1" as="geometry" />
        </mxCell>
        <mxCell id="4qwOusfXjDZK4xlIVaBN-36" style="rounded=0;orthogonalLoop=1;jettySize=auto;html=1;exitX=0.75;exitY=0;exitDx=0;exitDy=0;entryX=0;entryY=1;entryDx=0;entryDy=0;" parent="1" source="LnAC4LRu0r2MABlFZwdS-2" target="LnAC4LRu0r2MABlFZwdS-20" edge="1">
          <mxGeometry relative="1" as="geometry" />
        </mxCell>
        <mxCell id="4qwOusfXjDZK4xlIVaBN-37" style="rounded=0;orthogonalLoop=1;jettySize=auto;html=1;exitX=1;exitY=0;exitDx=0;exitDy=0;entryX=0.5;entryY=1;entryDx=0;entryDy=0;" parent="1" source="LnAC4LRu0r2MABlFZwdS-2" target="LnAC4LRu0r2MABlFZwdS-22" edge="1">
          <mxGeometry relative="1" as="geometry" />
        </mxCell>
        <mxCell id="4qwOusfXjDZK4xlIVaBN-41" style="rounded=0;orthogonalLoop=1;jettySize=auto;html=1;exitX=1;exitY=0.25;exitDx=0;exitDy=0;entryX=0;entryY=0.5;entryDx=0;entryDy=0;" parent="1" source="LnAC4LRu0r2MABlFZwdS-2" target="4qwOusfXjDZK4xlIVaBN-1" edge="1">
          <mxGeometry relative="1" as="geometry" />
        </mxCell>
        <mxCell id="4qwOusfXjDZK4xlIVaBN-42" style="rounded=0;orthogonalLoop=1;jettySize=auto;html=1;exitX=1;exitY=0;exitDx=0;exitDy=0;" parent="1" source="LnAC4LRu0r2MABlFZwdS-2" edge="1">
          <mxGeometry relative="1" as="geometry">
            <mxPoint x="955" y="320" as="targetPoint" />
          </mxGeometry>
        </mxCell>
        <mxCell id="LnAC4LRu0r2MABlFZwdS-2" value="&lt;h1&gt;Soldier&lt;br&gt;&lt;/h1&gt;" style="rounded=0;whiteSpace=wrap;html=1;fontStyle=1" parent="1" vertex="1">
          <mxGeometry x="655" y="370" width="200" height="60" as="geometry" />
        </mxCell>
        <mxCell id="7I8sLlN8vbdr-Xe1Vgn2-1" style="rounded=0;orthogonalLoop=1;jettySize=auto;html=1;exitX=0.5;exitY=0;exitDx=0;exitDy=0;entryX=0.5;entryY=1;entryDx=0;entryDy=0;" edge="1" parent="1" source="LnAC4LRu0r2MABlFZwdS-4" target="4qwOusfXjDZK4xlIVaBN-67">
          <mxGeometry relative="1" as="geometry" />
        </mxCell>
        <mxCell id="7I8sLlN8vbdr-Xe1Vgn2-2" style="rounded=0;orthogonalLoop=1;jettySize=auto;html=1;exitX=0.75;exitY=0;exitDx=0;exitDy=0;entryX=0;entryY=1;entryDx=0;entryDy=0;" edge="1" parent="1" source="LnAC4LRu0r2MABlFZwdS-4" target="4qwOusfXjDZK4xlIVaBN-75">
          <mxGeometry relative="1" as="geometry" />
        </mxCell>
        <mxCell id="7I8sLlN8vbdr-Xe1Vgn2-3" style="edgeStyle=none;shape=connector;rounded=0;orthogonalLoop=1;jettySize=auto;html=1;exitX=0.25;exitY=1;exitDx=0;exitDy=0;entryX=0.5;entryY=0;entryDx=0;entryDy=0;strokeColor=default;align=center;verticalAlign=middle;fontFamily=Helvetica;fontSize=11;fontColor=default;labelBackgroundColor=default;endArrow=classic;" edge="1" parent="1" source="LnAC4LRu0r2MABlFZwdS-4" target="4qwOusfXjDZK4xlIVaBN-71">
          <mxGeometry relative="1" as="geometry" />
        </mxCell>
        <mxCell id="7I8sLlN8vbdr-Xe1Vgn2-4" style="edgeStyle=none;shape=connector;rounded=0;orthogonalLoop=1;jettySize=auto;html=1;exitX=0;exitY=0.5;exitDx=0;exitDy=0;entryX=1;entryY=0.5;entryDx=0;entryDy=0;strokeColor=default;align=center;verticalAlign=middle;fontFamily=Helvetica;fontSize=11;fontColor=default;labelBackgroundColor=default;endArrow=classic;" edge="1" parent="1" source="LnAC4LRu0r2MABlFZwdS-4" target="4qwOusfXjDZK4xlIVaBN-69">
          <mxGeometry relative="1" as="geometry" />
        </mxCell>
        <mxCell id="LnAC4LRu0r2MABlFZwdS-4" value="&lt;h1&gt;Branch&lt;br&gt;&lt;/h1&gt;" style="rounded=0;whiteSpace=wrap;html=1;" parent="1" vertex="1">
          <mxGeometry x="1470" y="260" width="200" height="60" as="geometry" />
        </mxCell>
        <mxCell id="4qwOusfXjDZK4xlIVaBN-45" style="rounded=0;orthogonalLoop=1;jettySize=auto;html=1;exitX=0;exitY=0;exitDx=0;exitDy=0;entryX=0.5;entryY=1;entryDx=0;entryDy=0;" parent="1" source="LnAC4LRu0r2MABlFZwdS-6" target="4qwOusfXjDZK4xlIVaBN-8" edge="1">
          <mxGeometry relative="1" as="geometry" />
        </mxCell>
        <mxCell id="LnAC4LRu0r2MABlFZwdS-6" value="&lt;h1&gt;Next of kin&lt;br&gt;&lt;/h1&gt;" style="rounded=0;whiteSpace=wrap;html=1;" parent="1" vertex="1">
          <mxGeometry x="170" y="950" width="200" height="60" as="geometry" />
        </mxCell>
        <mxCell id="4qwOusfXjDZK4xlIVaBN-54" style="rounded=0;orthogonalLoop=1;jettySize=auto;html=1;exitX=0.25;exitY=0;exitDx=0;exitDy=0;entryX=0.5;entryY=1;entryDx=0;entryDy=0;" parent="1" source="LnAC4LRu0r2MABlFZwdS-9" target="4qwOusfXjDZK4xlIVaBN-53" edge="1">
          <mxGeometry relative="1" as="geometry" />
        </mxCell>
        <mxCell id="4qwOusfXjDZK4xlIVaBN-60" style="rounded=0;orthogonalLoop=1;jettySize=auto;html=1;exitX=0.75;exitY=0;exitDx=0;exitDy=0;entryX=0;entryY=1;entryDx=0;entryDy=0;" parent="1" source="LnAC4LRu0r2MABlFZwdS-9" target="4qwOusfXjDZK4xlIVaBN-59" edge="1">
          <mxGeometry relative="1" as="geometry" />
        </mxCell>
        <mxCell id="4qwOusfXjDZK4xlIVaBN-65" style="rounded=0;orthogonalLoop=1;jettySize=auto;html=1;exitX=0.25;exitY=1;exitDx=0;exitDy=0;entryX=1;entryY=0.5;entryDx=0;entryDy=0;" parent="1" source="LnAC4LRu0r2MABlFZwdS-9" target="4qwOusfXjDZK4xlIVaBN-64" edge="1">
          <mxGeometry relative="1" as="geometry" />
        </mxCell>
        <mxCell id="LnAC4LRu0r2MABlFZwdS-9" value="&lt;h1&gt;Operation&lt;br&gt;&lt;/h1&gt;" style="rounded=0;whiteSpace=wrap;html=1;" parent="1" vertex="1">
          <mxGeometry x="1190" y="940" width="200" height="60" as="geometry" />
        </mxCell>
        <mxCell id="LnAC4LRu0r2MABlFZwdS-10" value="&lt;h1&gt;fname&lt;br&gt;&lt;/h1&gt;" style="ellipse;whiteSpace=wrap;html=1;" parent="1" vertex="1">
          <mxGeometry x="315" y="170" width="120" height="80" as="geometry" />
        </mxCell>
        <mxCell id="4qwOusfXjDZK4xlIVaBN-32" style="rounded=0;orthogonalLoop=1;jettySize=auto;html=1;exitX=0;exitY=0.5;exitDx=0;exitDy=0;entryX=1;entryY=1;entryDx=0;entryDy=0;" parent="1" source="LnAC4LRu0r2MABlFZwdS-12" target="LnAC4LRu0r2MABlFZwdS-10" edge="1">
          <mxGeometry relative="1" as="geometry" />
        </mxCell>
        <mxCell id="4qwOusfXjDZK4xlIVaBN-33" style="edgeStyle=orthogonalEdgeStyle;rounded=0;orthogonalLoop=1;jettySize=auto;html=1;exitX=0.5;exitY=0;exitDx=0;exitDy=0;entryX=0.5;entryY=1;entryDx=0;entryDy=0;" parent="1" source="LnAC4LRu0r2MABlFZwdS-12" target="LnAC4LRu0r2MABlFZwdS-15" edge="1">
          <mxGeometry relative="1" as="geometry" />
        </mxCell>
        <mxCell id="LnAC4LRu0r2MABlFZwdS-12" value="&lt;h1&gt;name&lt;br&gt;&lt;/h1&gt;" style="ellipse;whiteSpace=wrap;html=1;" parent="1" vertex="1">
          <mxGeometry x="485" y="240" width="120" height="80" as="geometry" />
        </mxCell>
        <mxCell id="LnAC4LRu0r2MABlFZwdS-13" style="edgeStyle=orthogonalEdgeStyle;rounded=0;orthogonalLoop=1;jettySize=auto;html=1;exitX=0.5;exitY=1;exitDx=0;exitDy=0;" parent="1" source="LnAC4LRu0r2MABlFZwdS-2" target="LnAC4LRu0r2MABlFZwdS-2" edge="1">
          <mxGeometry relative="1" as="geometry" />
        </mxCell>
        <mxCell id="LnAC4LRu0r2MABlFZwdS-15" value="&lt;h1&gt;lname&lt;br&gt;&lt;/h1&gt;" style="ellipse;whiteSpace=wrap;html=1;" parent="1" vertex="1">
          <mxGeometry x="495" y="130" width="120" height="80" as="geometry" />
        </mxCell>
        <mxCell id="LnAC4LRu0r2MABlFZwdS-19" value="&lt;h1&gt;&lt;u&gt;service num&lt;/u&gt;&lt;br&gt;&lt;/h1&gt;" style="ellipse;whiteSpace=wrap;html=1;" parent="1" vertex="1">
          <mxGeometry x="605" y="210" width="120" height="80" as="geometry" />
        </mxCell>
        <mxCell id="LnAC4LRu0r2MABlFZwdS-20" value="&lt;h1&gt;rank&lt;br&gt;&lt;/h1&gt;" style="ellipse;whiteSpace=wrap;html=1;" parent="1" vertex="1">
          <mxGeometry x="805" y="190" width="120" height="80" as="geometry" />
        </mxCell>
        <mxCell id="LnAC4LRu0r2MABlFZwdS-21" value="&lt;h1&gt;sex&lt;br&gt;&lt;/h1&gt;" style="ellipse;whiteSpace=wrap;html=1;" parent="1" vertex="1">
          <mxGeometry x="705" y="120" width="120" height="80" as="geometry" />
        </mxCell>
        <mxCell id="4qwOusfXjDZK4xlIVaBN-39" style="rounded=0;orthogonalLoop=1;jettySize=auto;html=1;exitX=1;exitY=0.5;exitDx=0;exitDy=0;entryX=0;entryY=0.5;entryDx=0;entryDy=0;" parent="1" source="LnAC4LRu0r2MABlFZwdS-22" edge="1">
          <mxGeometry relative="1" as="geometry">
            <mxPoint x="1064.9999999999923" y="140" as="targetPoint" />
          </mxGeometry>
        </mxCell>
        <mxCell id="4qwOusfXjDZK4xlIVaBN-44" style="edgeStyle=orthogonalEdgeStyle;rounded=0;orthogonalLoop=1;jettySize=auto;html=1;exitX=0.5;exitY=0;exitDx=0;exitDy=0;entryX=0.5;entryY=1;entryDx=0;entryDy=0;" parent="1" source="LnAC4LRu0r2MABlFZwdS-22" target="4qwOusfXjDZK4xlIVaBN-43" edge="1">
          <mxGeometry relative="1" as="geometry" />
        </mxCell>
        <mxCell id="LnAC4LRu0r2MABlFZwdS-22" value="&lt;h1&gt;unit&lt;br&gt;&lt;/h1&gt;" style="ellipse;whiteSpace=wrap;html=1;" parent="1" vertex="1">
          <mxGeometry x="892" y="120" width="120" height="80" as="geometry" />
        </mxCell>
        <mxCell id="LnAC4LRu0r2MABlFZwdS-23" value="&lt;h1&gt;salary&lt;br&gt;&lt;/h1&gt;" style="ellipse;whiteSpace=wrap;html=1;" parent="1" vertex="1">
          <mxGeometry x="955" y="270" width="120" height="80" as="geometry" />
        </mxCell>
        <mxCell id="4qwOusfXjDZK4xlIVaBN-1" value="&lt;h1&gt;dateofbirth&lt;br&gt;&lt;/h1&gt;" style="ellipse;whiteSpace=wrap;html=1;" parent="1" vertex="1">
          <mxGeometry x="921" y="430" width="140" height="80" as="geometry" />
        </mxCell>
        <mxCell id="4qwOusfXjDZK4xlIVaBN-3" value="&lt;h1&gt;address&lt;br&gt;&lt;/h1&gt;" style="ellipse;whiteSpace=wrap;html=1;" parent="1" vertex="1">
          <mxGeometry x="715" y="480" width="140" height="80" as="geometry" />
        </mxCell>
        <mxCell id="4qwOusfXjDZK4xlIVaBN-21" style="rounded=0;orthogonalLoop=1;jettySize=auto;html=1;exitX=1;exitY=0.5;exitDx=0;exitDy=0;" parent="1" source="4qwOusfXjDZK4xlIVaBN-6" target="LnAC4LRu0r2MABlFZwdS-2" edge="1">
          <mxGeometry relative="1" as="geometry" />
        </mxCell>
        <mxCell id="4qwOusfXjDZK4xlIVaBN-6" value="&lt;h1&gt;qualifications&lt;br&gt;&lt;/h1&gt;" style="ellipse;shape=doubleEllipse;whiteSpace=wrap;html=1;" parent="1" vertex="1">
          <mxGeometry x="405" y="460" width="220" height="70" as="geometry" />
        </mxCell>
        <mxCell id="4qwOusfXjDZK4xlIVaBN-8" value="&lt;h1&gt;relationship&lt;br&gt;&lt;/h1&gt;" style="ellipse;whiteSpace=wrap;html=1;" parent="1" vertex="1">
          <mxGeometry x="10" y="830" width="170" height="90" as="geometry" />
        </mxCell>
        <mxCell id="4qwOusfXjDZK4xlIVaBN-9" value="&lt;h1&gt;address&lt;br&gt;&lt;/h1&gt;" style="ellipse;whiteSpace=wrap;html=1;" parent="1" vertex="1">
          <mxGeometry x="210" y="770" width="140" height="80" as="geometry" />
        </mxCell>
        <mxCell id="4qwOusfXjDZK4xlIVaBN-10" value="&lt;h1&gt;phone&lt;br&gt;&lt;/h1&gt;" style="ellipse;whiteSpace=wrap;html=1;" parent="1" vertex="1">
          <mxGeometry x="380" y="800" width="170" height="90" as="geometry" />
        </mxCell>
        <mxCell id="4qwOusfXjDZK4xlIVaBN-11" value="&lt;h1&gt;soldier&lt;br&gt;&lt;/h1&gt;" style="ellipse;whiteSpace=wrap;html=1;" parent="1" vertex="1">
          <mxGeometry x="430" y="920" width="170" height="90" as="geometry" />
        </mxCell>
        <mxCell id="4qwOusfXjDZK4xlIVaBN-49" style="rounded=0;orthogonalLoop=1;jettySize=auto;html=1;exitX=0;exitY=0;exitDx=0;exitDy=0;" parent="1" source="4qwOusfXjDZK4xlIVaBN-12" edge="1">
          <mxGeometry relative="1" as="geometry">
            <mxPoint x="309" y="1014" as="targetPoint" />
          </mxGeometry>
        </mxCell>
        <mxCell id="4qwOusfXjDZK4xlIVaBN-12" value="&lt;h1&gt;name&lt;br&gt;&lt;/h1&gt;" style="ellipse;whiteSpace=wrap;html=1;" parent="1" vertex="1">
          <mxGeometry x="310" y="1030" width="170" height="90" as="geometry" />
        </mxCell>
        <mxCell id="4qwOusfXjDZK4xlIVaBN-28" style="rounded=0;orthogonalLoop=1;jettySize=auto;html=1;exitX=1;exitY=1;exitDx=0;exitDy=0;entryX=0;entryY=0.25;entryDx=0;entryDy=0;" parent="1" source="4qwOusfXjDZK4xlIVaBN-18" target="LnAC4LRu0r2MABlFZwdS-2" edge="1">
          <mxGeometry relative="1" as="geometry" />
        </mxCell>
        <mxCell id="4qwOusfXjDZK4xlIVaBN-18" value="&lt;h1&gt;wounds&lt;br&gt;&lt;/h1&gt;" style="ellipse;shape=doubleEllipse;whiteSpace=wrap;html=1;" parent="1" vertex="1">
          <mxGeometry x="285" y="330" width="220" height="70" as="geometry" />
        </mxCell>
        <mxCell id="4qwOusfXjDZK4xlIVaBN-25" style="edgeStyle=orthogonalEdgeStyle;rounded=0;orthogonalLoop=1;jettySize=auto;html=1;exitX=0.5;exitY=0;exitDx=0;exitDy=0;entryX=0.653;entryY=1.033;entryDx=0;entryDy=0;entryPerimeter=0;" parent="1" source="4qwOusfXjDZK4xlIVaBN-3" target="LnAC4LRu0r2MABlFZwdS-2" edge="1">
          <mxGeometry relative="1" as="geometry" />
        </mxCell>
        <mxCell id="4qwOusfXjDZK4xlIVaBN-31" style="rounded=0;orthogonalLoop=1;jettySize=auto;html=1;exitX=0;exitY=0;exitDx=0;exitDy=0;entryX=0.802;entryY=0.957;entryDx=0;entryDy=0;entryPerimeter=0;" parent="1" source="LnAC4LRu0r2MABlFZwdS-2" target="LnAC4LRu0r2MABlFZwdS-12" edge="1">
          <mxGeometry relative="1" as="geometry" />
        </mxCell>
        <mxCell id="4qwOusfXjDZK4xlIVaBN-35" style="rounded=0;orthogonalLoop=1;jettySize=auto;html=1;exitX=0.5;exitY=0;exitDx=0;exitDy=0;entryX=0.667;entryY=1;entryDx=0;entryDy=0;entryPerimeter=0;" parent="1" source="LnAC4LRu0r2MABlFZwdS-2" target="LnAC4LRu0r2MABlFZwdS-21" edge="1">
          <mxGeometry relative="1" as="geometry" />
        </mxCell>
        <mxCell id="4qwOusfXjDZK4xlIVaBN-38" value="&lt;h1&gt;branch&lt;br&gt;&lt;/h1&gt;" style="ellipse;whiteSpace=wrap;html=1;" parent="1" vertex="1">
          <mxGeometry x="1055" y="103" width="140" height="80" as="geometry" />
        </mxCell>
        <mxCell id="4qwOusfXjDZK4xlIVaBN-43" value="&lt;h1&gt;operation&lt;br&gt;&lt;/h1&gt;" style="ellipse;whiteSpace=wrap;html=1;" parent="1" vertex="1">
          <mxGeometry x="878" y="16" width="140" height="80" as="geometry" />
        </mxCell>
        <mxCell id="4qwOusfXjDZK4xlIVaBN-46" style="edgeStyle=orthogonalEdgeStyle;rounded=0;orthogonalLoop=1;jettySize=auto;html=1;exitX=0.5;exitY=0;exitDx=0;exitDy=0;entryX=0.429;entryY=1.05;entryDx=0;entryDy=0;entryPerimeter=0;" parent="1" source="LnAC4LRu0r2MABlFZwdS-6" target="4qwOusfXjDZK4xlIVaBN-9" edge="1">
          <mxGeometry relative="1" as="geometry" />
        </mxCell>
        <mxCell id="4qwOusfXjDZK4xlIVaBN-47" style="rounded=0;orthogonalLoop=1;jettySize=auto;html=1;exitX=0.75;exitY=0;exitDx=0;exitDy=0;entryX=0.041;entryY=0.656;entryDx=0;entryDy=0;entryPerimeter=0;" parent="1" source="LnAC4LRu0r2MABlFZwdS-6" target="4qwOusfXjDZK4xlIVaBN-10" edge="1">
          <mxGeometry relative="1" as="geometry" />
        </mxCell>
        <mxCell id="4qwOusfXjDZK4xlIVaBN-48" style="rounded=0;orthogonalLoop=1;jettySize=auto;html=1;exitX=1;exitY=0.5;exitDx=0;exitDy=0;entryX=0.024;entryY=0.6;entryDx=0;entryDy=0;entryPerimeter=0;" parent="1" source="LnAC4LRu0r2MABlFZwdS-6" target="4qwOusfXjDZK4xlIVaBN-11" edge="1">
          <mxGeometry relative="1" as="geometry" />
        </mxCell>
        <mxCell id="4qwOusfXjDZK4xlIVaBN-52" style="rounded=0;orthogonalLoop=1;jettySize=auto;html=1;exitX=0.5;exitY=1;exitDx=0;exitDy=0;entryX=0;entryY=0.5;entryDx=0;entryDy=0;" parent="1" source="4qwOusfXjDZK4xlIVaBN-51" target="LnAC4LRu0r2MABlFZwdS-9" edge="1">
          <mxGeometry relative="1" as="geometry" />
        </mxCell>
        <mxCell id="4qwOusfXjDZK4xlIVaBN-51" value="&lt;h1&gt;&lt;u&gt;name&lt;br&gt;&lt;/u&gt;&lt;/h1&gt;" style="ellipse;whiteSpace=wrap;html=1;" parent="1" vertex="1">
          <mxGeometry x="1015" y="780" width="120" height="80" as="geometry" />
        </mxCell>
        <mxCell id="4qwOusfXjDZK4xlIVaBN-53" value="&lt;h1&gt;&lt;u&gt;number&lt;br&gt;&lt;/u&gt;&lt;/h1&gt;" style="ellipse;whiteSpace=wrap;html=1;" parent="1" vertex="1">
          <mxGeometry x="1170" y="750" width="120" height="80" as="geometry" />
        </mxCell>
        <mxCell id="4qwOusfXjDZK4xlIVaBN-59" value="&lt;h1&gt;location&lt;/h1&gt;" style="ellipse;shape=doubleEllipse;whiteSpace=wrap;html=1;" parent="1" vertex="1">
          <mxGeometry x="1310" y="810" width="220" height="70" as="geometry" />
        </mxCell>
        <mxCell id="4qwOusfXjDZK4xlIVaBN-64" value="&lt;h1&gt;branch&lt;br&gt;&lt;/h1&gt;" style="ellipse;whiteSpace=wrap;html=1;" parent="1" vertex="1">
          <mxGeometry x="930" y="1020" width="140" height="80" as="geometry" />
        </mxCell>
        <mxCell id="4qwOusfXjDZK4xlIVaBN-67" value="&lt;h1&gt;&lt;u&gt;name&lt;br&gt;&lt;/u&gt;&lt;/h1&gt;" style="ellipse;whiteSpace=wrap;html=1;" parent="1" vertex="1">
          <mxGeometry x="1470" y="110" width="120" height="80" as="geometry" />
        </mxCell>
        <mxCell id="4qwOusfXjDZK4xlIVaBN-69" value="&lt;h1&gt;HQ&lt;br&gt;&lt;/h1&gt;" style="ellipse;whiteSpace=wrap;html=1;" parent="1" vertex="1">
          <mxGeometry x="1280" y="240" width="140" height="80" as="geometry" />
        </mxCell>
        <mxCell id="4qwOusfXjDZK4xlIVaBN-71" value="&lt;h1&gt;units&lt;br&gt;&lt;/h1&gt;" style="ellipse;shape=doubleEllipse;whiteSpace=wrap;html=1;" parent="1" vertex="1">
          <mxGeometry x="1350" y="390" width="220" height="70" as="geometry" />
        </mxCell>
        <mxCell id="7I8sLlN8vbdr-Xe1Vgn2-6" style="edgeStyle=none;shape=connector;rounded=0;orthogonalLoop=1;jettySize=auto;html=1;exitX=0.5;exitY=1;exitDx=0;exitDy=0;strokeColor=default;align=center;verticalAlign=middle;fontFamily=Helvetica;fontSize=11;fontColor=default;labelBackgroundColor=default;endArrow=classic;" edge="1" parent="1" source="4qwOusfXjDZK4xlIVaBN-72" target="4qwOusfXjDZK4xlIVaBN-76">
          <mxGeometry relative="1" as="geometry" />
        </mxCell>
        <mxCell id="7I8sLlN8vbdr-Xe1Vgn2-8" style="edgeStyle=none;shape=connector;rounded=0;orthogonalLoop=1;jettySize=auto;html=1;exitX=0;exitY=0.25;exitDx=0;exitDy=0;entryX=1;entryY=1;entryDx=0;entryDy=0;strokeColor=default;align=center;verticalAlign=middle;fontFamily=Helvetica;fontSize=11;fontColor=default;labelBackgroundColor=default;endArrow=classic;" edge="1" parent="1" source="4qwOusfXjDZK4xlIVaBN-72" target="4qwOusfXjDZK4xlIVaBN-78">
          <mxGeometry relative="1" as="geometry" />
        </mxCell>
        <mxCell id="4qwOusfXjDZK4xlIVaBN-72" value="&lt;h1&gt;Unit&lt;br&gt;&lt;/h1&gt;" style="rounded=0;whiteSpace=wrap;html=1;" parent="1" vertex="1">
          <mxGeometry x="2180" y="103" width="200" height="60" as="geometry" />
        </mxCell>
        <mxCell id="4qwOusfXjDZK4xlIVaBN-75" value="&lt;h1&gt;commanders&lt;br&gt;&lt;/h1&gt;" style="ellipse;shape=doubleEllipse;whiteSpace=wrap;html=1;" parent="1" vertex="1">
          <mxGeometry x="1630" y="150" width="220" height="70" as="geometry" />
        </mxCell>
        <mxCell id="4qwOusfXjDZK4xlIVaBN-76" value="&lt;h1&gt;HQ&lt;br&gt;&lt;/h1&gt;" style="ellipse;whiteSpace=wrap;html=1;" parent="1" vertex="1">
          <mxGeometry x="2090" y="210" width="140" height="80" as="geometry" />
        </mxCell>
        <mxCell id="4qwOusfXjDZK4xlIVaBN-77" value="&lt;h1&gt;commanders&lt;br&gt;&lt;/h1&gt;" style="ellipse;shape=doubleEllipse;whiteSpace=wrap;html=1;" parent="1" vertex="1">
          <mxGeometry x="2320" y="220" width="220" height="70" as="geometry" />
        </mxCell>
        <mxCell id="4qwOusfXjDZK4xlIVaBN-78" value="&lt;h1&gt;&lt;u&gt;name&lt;br&gt;&lt;/u&gt;&lt;/h1&gt;" style="ellipse;whiteSpace=wrap;html=1;" parent="1" vertex="1">
          <mxGeometry x="2040" y="30" width="120" height="80" as="geometry" />
        </mxCell>
        <mxCell id="4qwOusfXjDZK4xlIVaBN-79" value="&lt;h1&gt;training locations&lt;br&gt;&lt;/h1&gt;" style="ellipse;shape=doubleEllipse;whiteSpace=wrap;html=1;" parent="1" vertex="1">
          <mxGeometry x="2330" y="30" width="260" height="70" as="geometry" />
        </mxCell>
        <mxCell id="4qwOusfXjDZK4xlIVaBN-80" value="&lt;h1&gt;bases&lt;br&gt;&lt;/h1&gt;" style="ellipse;shape=doubleEllipse;whiteSpace=wrap;html=1;" parent="1" vertex="1">
          <mxGeometry x="1640" y="350" width="220" height="70" as="geometry" />
        </mxCell>
        <mxCell id="7I8sLlN8vbdr-Xe1Vgn2-5" style="edgeStyle=none;shape=connector;rounded=0;orthogonalLoop=1;jettySize=auto;html=1;exitX=0.75;exitY=1;exitDx=0;exitDy=0;entryX=0.214;entryY=0.104;entryDx=0;entryDy=0;entryPerimeter=0;strokeColor=default;align=center;verticalAlign=middle;fontFamily=Helvetica;fontSize=11;fontColor=default;labelBackgroundColor=default;endArrow=classic;" edge="1" parent="1" source="LnAC4LRu0r2MABlFZwdS-4" target="4qwOusfXjDZK4xlIVaBN-80">
          <mxGeometry relative="1" as="geometry" />
        </mxCell>
        <mxCell id="7I8sLlN8vbdr-Xe1Vgn2-7" style="edgeStyle=none;shape=connector;rounded=0;orthogonalLoop=1;jettySize=auto;html=1;exitX=0.75;exitY=1;exitDx=0;exitDy=0;entryX=0.357;entryY=0.043;entryDx=0;entryDy=0;entryPerimeter=0;strokeColor=default;align=center;verticalAlign=middle;fontFamily=Helvetica;fontSize=11;fontColor=default;labelBackgroundColor=default;endArrow=classic;" edge="1" parent="1" source="4qwOusfXjDZK4xlIVaBN-72" target="4qwOusfXjDZK4xlIVaBN-77">
          <mxGeometry relative="1" as="geometry" />
        </mxCell>
        <mxCell id="7I8sLlN8vbdr-Xe1Vgn2-9" style="edgeStyle=none;shape=connector;rounded=0;orthogonalLoop=1;jettySize=auto;html=1;exitX=0.5;exitY=0;exitDx=0;exitDy=0;entryX=0.027;entryY=0.716;entryDx=0;entryDy=0;entryPerimeter=0;strokeColor=default;align=center;verticalAlign=middle;fontFamily=Helvetica;fontSize=11;fontColor=default;labelBackgroundColor=default;endArrow=classic;" edge="1" parent="1" source="4qwOusfXjDZK4xlIVaBN-72" target="4qwOusfXjDZK4xlIVaBN-79">
          <mxGeometry relative="1" as="geometry" />
        </mxCell>
        <mxCell id="7I8sLlN8vbdr-Xe1Vgn2-16" value="" style="group" vertex="1" connectable="0" parent="1">
          <mxGeometry x="2030" y="410" width="130" height="80" as="geometry" />
        </mxCell>
        <mxCell id="7I8sLlN8vbdr-Xe1Vgn2-10" value="Name" style="rounded=0;whiteSpace=wrap;html=1;fontFamily=Helvetica;fontSize=11;fontColor=default;labelBackgroundColor=default;" vertex="1" parent="7I8sLlN8vbdr-Xe1Vgn2-16">
          <mxGeometry x="10" y="40" width="120" height="40" as="geometry" />
        </mxCell>
        <mxCell id="7I8sLlN8vbdr-Xe1Vgn2-11" value="Soldier" style="text;html=1;align=center;verticalAlign=middle;resizable=0;points=[];autosize=1;strokeColor=none;fillColor=none;fontFamily=Helvetica;fontSize=22;fontColor=default;labelBackgroundColor=default;" vertex="1" parent="7I8sLlN8vbdr-Xe1Vgn2-16">
          <mxGeometry width="90" height="40" as="geometry" />
        </mxCell>
        <mxCell id="7I8sLlN8vbdr-Xe1Vgn2-17" value="" style="group;align=left;" vertex="1" connectable="0" parent="1">
          <mxGeometry x="2030" y="500" width="130" height="80" as="geometry" />
        </mxCell>
        <mxCell id="7I8sLlN8vbdr-Xe1Vgn2-18" value="name" style="rounded=0;whiteSpace=wrap;html=1;fontFamily=Helvetica;fontSize=11;fontColor=default;labelBackgroundColor=default;" vertex="1" parent="7I8sLlN8vbdr-Xe1Vgn2-17">
          <mxGeometry x="10" y="40" width="120" height="40" as="geometry" />
        </mxCell>
        <mxCell id="7I8sLlN8vbdr-Xe1Vgn2-19" value="Unit" style="text;html=1;align=center;verticalAlign=middle;resizable=0;points=[];autosize=1;strokeColor=none;fillColor=none;fontFamily=Helvetica;fontSize=22;fontColor=default;labelBackgroundColor=default;" vertex="1" parent="7I8sLlN8vbdr-Xe1Vgn2-17">
          <mxGeometry x="15" width="60" height="40" as="geometry" />
        </mxCell>
        <mxCell id="7I8sLlN8vbdr-Xe1Vgn2-20" value="" style="group" vertex="1" connectable="0" parent="1">
          <mxGeometry x="2030" y="590" width="130" height="80" as="geometry" />
        </mxCell>
        <mxCell id="7I8sLlN8vbdr-Xe1Vgn2-21" value="HQ" style="rounded=0;whiteSpace=wrap;html=1;fontFamily=Helvetica;fontSize=11;fontColor=default;labelBackgroundColor=default;" vertex="1" parent="7I8sLlN8vbdr-Xe1Vgn2-20">
          <mxGeometry x="10" y="40" width="120" height="40" as="geometry" />
        </mxCell>
        <mxCell id="7I8sLlN8vbdr-Xe1Vgn2-22" value="Branch" style="text;html=1;align=center;verticalAlign=middle;resizable=0;points=[];autosize=1;strokeColor=none;fillColor=none;fontFamily=Helvetica;fontSize=22;fontColor=default;labelBackgroundColor=default;" vertex="1" parent="7I8sLlN8vbdr-Xe1Vgn2-20">
          <mxGeometry width="90" height="40" as="geometry" />
        </mxCell>
        <mxCell id="7I8sLlN8vbdr-Xe1Vgn2-24" value="" style="group" vertex="1" connectable="0" parent="1">
          <mxGeometry x="2030" y="680" width="130" height="80" as="geometry" />
        </mxCell>
        <mxCell id="7I8sLlN8vbdr-Xe1Vgn2-25" value="name" style="rounded=0;whiteSpace=wrap;html=1;fontFamily=Helvetica;fontSize=11;fontColor=default;labelBackgroundColor=default;" vertex="1" parent="7I8sLlN8vbdr-Xe1Vgn2-24">
          <mxGeometry x="10" y="40" width="120" height="40" as="geometry" />
        </mxCell>
        <mxCell id="7I8sLlN8vbdr-Xe1Vgn2-26" value="&amp;nbsp;&amp;nbsp;&amp;nbsp;&amp;nbsp; Operation" style="text;html=1;align=center;verticalAlign=middle;resizable=0;points=[];autosize=1;strokeColor=none;fillColor=none;fontFamily=Helvetica;fontSize=22;fontColor=default;labelBackgroundColor=default;" vertex="1" parent="7I8sLlN8vbdr-Xe1Vgn2-24">
          <mxGeometry x="-30" width="150" height="40" as="geometry" />
        </mxCell>
        <mxCell id="7I8sLlN8vbdr-Xe1Vgn2-27" value="" style="group" vertex="1" connectable="0" parent="1">
          <mxGeometry x="2150" y="410" width="130" height="80" as="geometry" />
        </mxCell>
        <mxCell id="7I8sLlN8vbdr-Xe1Vgn2-28" value="fname" style="rounded=0;whiteSpace=wrap;html=1;fontFamily=Helvetica;fontSize=11;fontColor=default;labelBackgroundColor=default;" vertex="1" parent="7I8sLlN8vbdr-Xe1Vgn2-27">
          <mxGeometry x="10" y="40" width="120" height="40" as="geometry" />
        </mxCell>
        <mxCell id="7I8sLlN8vbdr-Xe1Vgn2-30" value="" style="group" vertex="1" connectable="0" parent="1">
          <mxGeometry x="2270" y="410" width="130" height="80" as="geometry" />
        </mxCell>
        <mxCell id="7I8sLlN8vbdr-Xe1Vgn2-31" value="lname" style="rounded=0;whiteSpace=wrap;html=1;fontFamily=Helvetica;fontSize=11;fontColor=default;labelBackgroundColor=default;" vertex="1" parent="7I8sLlN8vbdr-Xe1Vgn2-30">
          <mxGeometry x="10" y="40" width="120" height="40" as="geometry" />
        </mxCell>
        <mxCell id="7I8sLlN8vbdr-Xe1Vgn2-33" value="" style="group" vertex="1" connectable="0" parent="1">
          <mxGeometry x="2390" y="410" width="130" height="80" as="geometry" />
        </mxCell>
        <mxCell id="7I8sLlN8vbdr-Xe1Vgn2-34" value="service num" style="rounded=0;whiteSpace=wrap;html=1;fontFamily=Helvetica;fontSize=11;fontColor=default;labelBackgroundColor=default;" vertex="1" parent="7I8sLlN8vbdr-Xe1Vgn2-33">
          <mxGeometry x="10" y="40" width="120" height="40" as="geometry" />
        </mxCell>
        <mxCell id="7I8sLlN8vbdr-Xe1Vgn2-35" value="" style="group" vertex="1" connectable="0" parent="1">
          <mxGeometry x="2510" y="410" width="130" height="80" as="geometry" />
        </mxCell>
        <mxCell id="7I8sLlN8vbdr-Xe1Vgn2-36" value="sex" style="rounded=0;whiteSpace=wrap;html=1;fontFamily=Helvetica;fontSize=11;fontColor=default;labelBackgroundColor=default;" vertex="1" parent="7I8sLlN8vbdr-Xe1Vgn2-35">
          <mxGeometry x="10" y="40" width="120" height="40" as="geometry" />
        </mxCell>
        <mxCell id="7I8sLlN8vbdr-Xe1Vgn2-37" value="" style="group" vertex="1" connectable="0" parent="1">
          <mxGeometry x="2630" y="410" width="130" height="80" as="geometry" />
        </mxCell>
        <mxCell id="7I8sLlN8vbdr-Xe1Vgn2-38" value="rank" style="rounded=0;whiteSpace=wrap;html=1;fontFamily=Helvetica;fontSize=11;fontColor=default;labelBackgroundColor=default;" vertex="1" parent="7I8sLlN8vbdr-Xe1Vgn2-37">
          <mxGeometry x="10" y="40" width="120" height="40" as="geometry" />
        </mxCell>
        <mxCell id="7I8sLlN8vbdr-Xe1Vgn2-39" value="" style="group" vertex="1" connectable="0" parent="1">
          <mxGeometry x="2150" y="500" width="130" height="80" as="geometry" />
        </mxCell>
        <mxCell id="7I8sLlN8vbdr-Xe1Vgn2-40" value="HQ" style="rounded=0;whiteSpace=wrap;html=1;fontFamily=Helvetica;fontSize=11;fontColor=default;labelBackgroundColor=default;" vertex="1" parent="7I8sLlN8vbdr-Xe1Vgn2-39">
          <mxGeometry x="10" y="40" width="120" height="40" as="geometry" />
        </mxCell>
        <mxCell id="7I8sLlN8vbdr-Xe1Vgn2-41" value="" style="group" vertex="1" connectable="0" parent="1">
          <mxGeometry x="2270" y="500" width="130" height="80" as="geometry" />
        </mxCell>
        <mxCell id="7I8sLlN8vbdr-Xe1Vgn2-42" value="commanders" style="rounded=0;whiteSpace=wrap;html=1;fontFamily=Helvetica;fontSize=11;fontColor=default;labelBackgroundColor=default;" vertex="1" parent="7I8sLlN8vbdr-Xe1Vgn2-41">
          <mxGeometry x="10" y="40" width="120" height="40" as="geometry" />
        </mxCell>
        <mxCell id="7I8sLlN8vbdr-Xe1Vgn2-43" value="" style="group" vertex="1" connectable="0" parent="1">
          <mxGeometry x="2390" y="500" width="130" height="80" as="geometry" />
        </mxCell>
        <mxCell id="7I8sLlN8vbdr-Xe1Vgn2-44" value="training locations" style="rounded=0;whiteSpace=wrap;html=1;fontFamily=Helvetica;fontSize=11;fontColor=default;labelBackgroundColor=default;" vertex="1" parent="7I8sLlN8vbdr-Xe1Vgn2-43">
          <mxGeometry x="10" y="40" width="120" height="40" as="geometry" />
        </mxCell>
        <mxCell id="7I8sLlN8vbdr-Xe1Vgn2-45" value="" style="group" vertex="1" connectable="0" parent="1">
          <mxGeometry x="2510" y="500" width="130" height="80" as="geometry" />
        </mxCell>
        <mxCell id="7I8sLlN8vbdr-Xe1Vgn2-46" value="" style="rounded=0;whiteSpace=wrap;html=1;fontFamily=Helvetica;fontSize=11;fontColor=default;labelBackgroundColor=default;" vertex="1" parent="7I8sLlN8vbdr-Xe1Vgn2-45">
          <mxGeometry x="10" y="40" width="120" height="40" as="geometry" />
        </mxCell>
        <mxCell id="7I8sLlN8vbdr-Xe1Vgn2-47" value="" style="group" vertex="1" connectable="0" parent="1">
          <mxGeometry x="2635" y="500" width="130" height="80" as="geometry" />
        </mxCell>
        <mxCell id="7I8sLlN8vbdr-Xe1Vgn2-48" value="" style="rounded=0;whiteSpace=wrap;html=1;fontFamily=Helvetica;fontSize=11;fontColor=default;labelBackgroundColor=default;" vertex="1" parent="7I8sLlN8vbdr-Xe1Vgn2-47">
          <mxGeometry x="5" y="40" width="120" height="40" as="geometry" />
        </mxCell>
        <mxCell id="7I8sLlN8vbdr-Xe1Vgn2-52" value="" style="group" vertex="1" connectable="0" parent="1">
          <mxGeometry x="2150" y="590" width="130" height="80" as="geometry" />
        </mxCell>
        <mxCell id="7I8sLlN8vbdr-Xe1Vgn2-53" value="name" style="rounded=0;whiteSpace=wrap;html=1;fontFamily=Helvetica;fontSize=11;fontColor=default;labelBackgroundColor=default;" vertex="1" parent="7I8sLlN8vbdr-Xe1Vgn2-52">
          <mxGeometry x="10" y="40" width="120" height="40" as="geometry" />
        </mxCell>
        <mxCell id="7I8sLlN8vbdr-Xe1Vgn2-54" value="commanders" style="rounded=0;whiteSpace=wrap;html=1;fontFamily=Helvetica;fontSize=11;fontColor=default;labelBackgroundColor=default;" vertex="1" parent="1">
          <mxGeometry x="2280" y="630" width="120" height="40" as="geometry" />
        </mxCell>
        <mxCell id="7I8sLlN8vbdr-Xe1Vgn2-55" value="units" style="rounded=0;whiteSpace=wrap;html=1;fontFamily=Helvetica;fontSize=11;fontColor=default;labelBackgroundColor=default;" vertex="1" parent="1">
          <mxGeometry x="2400" y="630" width="120" height="40" as="geometry" />
        </mxCell>
        <mxCell id="7I8sLlN8vbdr-Xe1Vgn2-56" value="" style="rounded=0;whiteSpace=wrap;html=1;fontFamily=Helvetica;fontSize=11;fontColor=default;labelBackgroundColor=default;" vertex="1" parent="1">
          <mxGeometry x="2520" y="630" width="120" height="40" as="geometry" />
        </mxCell>
        <mxCell id="7I8sLlN8vbdr-Xe1Vgn2-57" value="" style="group" vertex="1" connectable="0" parent="1">
          <mxGeometry x="2635" y="590" width="130" height="80" as="geometry" />
        </mxCell>
        <mxCell id="7I8sLlN8vbdr-Xe1Vgn2-58" value="" style="rounded=0;whiteSpace=wrap;html=1;fontFamily=Helvetica;fontSize=11;fontColor=default;labelBackgroundColor=default;" vertex="1" parent="7I8sLlN8vbdr-Xe1Vgn2-57">
          <mxGeometry x="5" y="40" width="120" height="40" as="geometry" />
        </mxCell>
        <mxCell id="7I8sLlN8vbdr-Xe1Vgn2-59" value="" style="group" vertex="1" connectable="0" parent="1">
          <mxGeometry x="2150" y="680" width="130" height="80" as="geometry" />
        </mxCell>
        <mxCell id="7I8sLlN8vbdr-Xe1Vgn2-60" value="number" style="rounded=0;whiteSpace=wrap;html=1;fontFamily=Helvetica;fontSize=11;fontColor=default;labelBackgroundColor=default;" vertex="1" parent="7I8sLlN8vbdr-Xe1Vgn2-59">
          <mxGeometry x="10" y="40" width="120" height="40" as="geometry" />
        </mxCell>
        <mxCell id="7I8sLlN8vbdr-Xe1Vgn2-61" value="location" style="rounded=0;whiteSpace=wrap;html=1;fontFamily=Helvetica;fontSize=11;fontColor=default;labelBackgroundColor=default;" vertex="1" parent="1">
          <mxGeometry x="2280" y="720" width="120" height="40" as="geometry" />
        </mxCell>
        <mxCell id="7I8sLlN8vbdr-Xe1Vgn2-62" value="branch" style="rounded=0;whiteSpace=wrap;html=1;fontFamily=Helvetica;fontSize=11;fontColor=default;labelBackgroundColor=default;" vertex="1" parent="1">
          <mxGeometry x="2400" y="720" width="120" height="40" as="geometry" />
        </mxCell>
        <mxCell id="7I8sLlN8vbdr-Xe1Vgn2-63" value="" style="rounded=0;whiteSpace=wrap;html=1;fontFamily=Helvetica;fontSize=11;fontColor=default;labelBackgroundColor=default;" vertex="1" parent="1">
          <mxGeometry x="2520" y="720" width="120" height="40" as="geometry" />
        </mxCell>
        <mxCell id="7I8sLlN8vbdr-Xe1Vgn2-64" value="" style="group" vertex="1" connectable="0" parent="1">
          <mxGeometry x="2635" y="680" width="130" height="80" as="geometry" />
        </mxCell>
        <mxCell id="7I8sLlN8vbdr-Xe1Vgn2-65" value="" style="rounded=0;whiteSpace=wrap;html=1;fontFamily=Helvetica;fontSize=11;fontColor=default;labelBackgroundColor=default;" vertex="1" parent="7I8sLlN8vbdr-Xe1Vgn2-64">
          <mxGeometry x="5" y="40" width="120" height="40" as="geometry" />
        </mxCell>
        <mxCell id="7I8sLlN8vbdr-Xe1Vgn2-73" value="" style="group" vertex="1" connectable="0" parent="1">
          <mxGeometry x="2750" y="410" width="130" height="80" as="geometry" />
        </mxCell>
        <mxCell id="7I8sLlN8vbdr-Xe1Vgn2-74" value="unit" style="rounded=0;whiteSpace=wrap;html=1;fontFamily=Helvetica;fontSize=11;fontColor=default;labelBackgroundColor=default;" vertex="1" parent="7I8sLlN8vbdr-Xe1Vgn2-73">
          <mxGeometry x="10" y="40" width="120" height="40" as="geometry" />
        </mxCell>
        <mxCell id="7I8sLlN8vbdr-Xe1Vgn2-75" value="" style="group" vertex="1" connectable="0" parent="1">
          <mxGeometry x="2870" y="410" width="130" height="80" as="geometry" />
        </mxCell>
        <mxCell id="7I8sLlN8vbdr-Xe1Vgn2-76" value="operation" style="rounded=0;whiteSpace=wrap;html=1;fontFamily=Helvetica;fontSize=11;fontColor=default;labelBackgroundColor=default;" vertex="1" parent="7I8sLlN8vbdr-Xe1Vgn2-75">
          <mxGeometry x="10" y="40" width="120" height="40" as="geometry" />
        </mxCell>
        <mxCell id="7I8sLlN8vbdr-Xe1Vgn2-77" value="" style="group" vertex="1" connectable="0" parent="1">
          <mxGeometry x="2995" y="410" width="130" height="80" as="geometry" />
        </mxCell>
        <mxCell id="7I8sLlN8vbdr-Xe1Vgn2-78" value="branch" style="rounded=0;whiteSpace=wrap;html=1;fontFamily=Helvetica;fontSize=11;fontColor=default;labelBackgroundColor=default;" vertex="1" parent="7I8sLlN8vbdr-Xe1Vgn2-77">
          <mxGeometry x="5" y="40" width="120" height="40" as="geometry" />
        </mxCell>
        <mxCell id="7I8sLlN8vbdr-Xe1Vgn2-79" value="" style="group" vertex="1" connectable="0" parent="1">
          <mxGeometry x="3110" y="410" width="130" height="80" as="geometry" />
        </mxCell>
        <mxCell id="7I8sLlN8vbdr-Xe1Vgn2-80" value="salary" style="rounded=0;whiteSpace=wrap;html=1;fontFamily=Helvetica;fontSize=11;fontColor=default;labelBackgroundColor=default;" vertex="1" parent="7I8sLlN8vbdr-Xe1Vgn2-79">
          <mxGeometry x="10" y="40" width="120" height="40" as="geometry" />
        </mxCell>
        <mxCell id="7I8sLlN8vbdr-Xe1Vgn2-81" value="" style="group" vertex="1" connectable="0" parent="1">
          <mxGeometry x="3230" y="410" width="130" height="80" as="geometry" />
        </mxCell>
        <mxCell id="7I8sLlN8vbdr-Xe1Vgn2-82" value="date of birth" style="rounded=0;whiteSpace=wrap;html=1;fontFamily=Helvetica;fontSize=11;fontColor=default;labelBackgroundColor=default;" vertex="1" parent="7I8sLlN8vbdr-Xe1Vgn2-81">
          <mxGeometry x="10" y="40" width="120" height="40" as="geometry" />
        </mxCell>
        <mxCell id="7I8sLlN8vbdr-Xe1Vgn2-83" value="" style="group" vertex="1" connectable="0" parent="1">
          <mxGeometry x="3355" y="410" width="130" height="80" as="geometry" />
        </mxCell>
        <mxCell id="7I8sLlN8vbdr-Xe1Vgn2-84" value="address" style="rounded=0;whiteSpace=wrap;html=1;fontFamily=Helvetica;fontSize=11;fontColor=default;labelBackgroundColor=default;" vertex="1" parent="7I8sLlN8vbdr-Xe1Vgn2-83">
          <mxGeometry x="5" y="40" width="120" height="40" as="geometry" />
        </mxCell>
        <mxCell id="7I8sLlN8vbdr-Xe1Vgn2-85" value="" style="group" vertex="1" connectable="0" parent="1">
          <mxGeometry x="3465" y="410" width="130" height="80" as="geometry" />
        </mxCell>
        <mxCell id="7I8sLlN8vbdr-Xe1Vgn2-86" value="qualifications" style="rounded=0;whiteSpace=wrap;html=1;fontFamily=Helvetica;fontSize=11;fontColor=default;labelBackgroundColor=default;" vertex="1" parent="7I8sLlN8vbdr-Xe1Vgn2-85">
          <mxGeometry x="10" y="40" width="120" height="40" as="geometry" />
        </mxCell>
        <mxCell id="7I8sLlN8vbdr-Xe1Vgn2-87" value="" style="group" vertex="1" connectable="0" parent="1">
          <mxGeometry x="3585" y="410" width="130" height="80" as="geometry" />
        </mxCell>
        <mxCell id="7I8sLlN8vbdr-Xe1Vgn2-88" value="wounds" style="rounded=0;whiteSpace=wrap;html=1;fontFamily=Helvetica;fontSize=11;fontColor=default;labelBackgroundColor=default;" vertex="1" parent="7I8sLlN8vbdr-Xe1Vgn2-87">
          <mxGeometry x="10" y="40" width="120" height="40" as="geometry" />
        </mxCell>
      </root>
    </mxGraphModel>
  </diagram>
</mxfile>
